<svg width="24" height="24" viewBox="0 0 24 24" fill="none" xmlns="http://www.w3.org/2000/svg">
<path d="M12 10.7499C12.4142 10.7499 12.75 11.0857 12.75 11.4999V16.4999C12.75 16.9142 12.4142 17.2499 12 17.2499C11.5858 17.2499 11.25 16.9142 11.25 16.4999L11.25 11.4999C11.25 11.0857 11.5858 10.7499 12 10.7499Z" fill="#3ED598"/>
<path d="M12 8.99994C12.5523 8.99994 13 8.55223 13 7.99994C13 7.44766 12.5523 6.99994 12 6.99994C11.4477 6.99994 11 7.44766 11 7.99994C11 8.55223 11.4477 8.99994 12 8.99994Z" fill="#3ED598"/>
<path fill-rule="evenodd" clip-rule="evenodd" d="M7.31673 3.7687C10.4043 3.42362 13.5957 3.42362 16.6832 3.7687C18.5096 3.97282 19.9845 5.41146 20.1994 7.24843C20.5686 10.4053 20.5686 13.5945 20.1994 16.7515C19.9845 18.5884 18.5096 20.0271 16.6832 20.2312C13.5957 20.5763 10.4043 20.5763 7.31673 20.2312C5.49035 20.0271 4.01545 18.5884 3.8006 16.7515C3.43137 13.5945 3.43137 10.4053 3.8006 7.24843C4.01545 5.41146 5.49035 3.97282 7.31673 3.7687ZM16.5166 5.25942C13.5398 4.92671 10.4602 4.92671 7.48334 5.25942C6.33891 5.38732 5.42286 6.29057 5.29045 7.42268C4.93476 10.4638 4.93476 13.5361 5.29045 16.5772C5.42286 17.7093 6.33891 18.6126 7.48334 18.7405C10.4602 19.0732 13.5398 19.0732 16.5166 18.7405C17.6611 18.6126 18.5771 17.7093 18.7095 16.5772C19.0652 13.5361 19.0652 10.4638 18.7095 7.42268C18.5771 6.29057 17.6611 5.38732 16.5166 5.25942Z" fill="#3ED598"/>
</svg>
