<svg width="36" height="36" viewBox="0 0 36 36" fill="none" xmlns="http://www.w3.org/2000/svg">
<path fill-rule="evenodd" clip-rule="evenodd" d="M10.8754 22.576C10.863 23.0922 11.2035 23.5505 11.7013 23.6877C12.199 23.8248 12.7262 23.6055 12.9799 23.1558L14.3334 20.7565C15.9385 17.9111 19.1338 16.3522 22.3643 16.8384L22.5883 16.8721C22.6286 17.8889 22.6857 18.9052 22.7597 19.9205L22.8615 21.3165C22.9443 22.4517 24.2101 23.0863 25.1692 22.4735C28.3157 20.4629 31.0511 17.8723 33.2296 14.8397L33.9137 13.8872C34.1955 13.495 34.1955 12.9668 33.9137 12.5746L33.2296 11.6221C31.0511 8.58951 28.3157 5.99887 25.1692 3.98833C24.2101 3.37546 22.9443 4.01006 22.8615 5.14529L22.7597 6.54125C22.7001 7.35984 22.6514 8.17903 22.6136 8.99861L21.0863 8.9986C15.5892 8.9986 11.0964 13.3848 10.9642 18.8802L10.8754 22.576ZM22.6992 14.6135C19.0702 14.0673 15.4759 15.5283 13.2495 18.346C13.6419 14.3512 17.0089 11.2486 21.0863 11.2486L23.6944 11.2486C24.3007 11.2486 24.798 10.7681 24.8187 10.1621C24.8582 9.00887 24.9199 7.85624 25.0038 6.70483L25.0119 6.59314C27.4771 8.33564 29.6375 10.4782 31.4022 12.9348L31.6149 13.2309L31.4022 13.527C29.6375 15.9836 27.4771 18.1262 25.0119 19.8687L25.0038 19.757C24.9093 18.4611 24.843 17.1638 24.8049 15.8658C24.7889 15.3219 24.3859 14.8673 23.8478 14.7864L22.6992 14.6135Z" fill="#3E97E6"/>
<path d="M29.4621 26.1169C29.639 24.6045 29.7638 23.0874 29.8367 21.5686C29.8446 21.4041 29.9191 21.2501 30.0425 21.1411C30.5876 20.66 31.1157 20.16 31.6259 19.6421C31.8178 19.4473 32.1531 19.5835 32.1473 19.8569C32.1005 22.0348 31.9503 24.2111 31.6968 26.3783C31.342 29.4121 28.9055 31.7896 25.8874 32.1269C20.6875 32.7081 15.3125 32.7081 10.1127 32.1269C7.0946 31.7896 4.6581 29.4121 4.30327 26.3783C3.68146 21.0619 3.68146 15.6911 4.30327 10.3746C4.6581 7.34081 7.0946 4.96329 10.1127 4.62598C13.5491 4.2419 17.0621 4.11165 20.5504 4.23523C20.8441 4.24564 21.0463 4.53315 21.0097 4.82474C21.0021 4.88547 20.996 4.94689 20.9915 5.00898L20.9145 6.0647C20.8969 6.30709 20.69 6.49151 20.4471 6.48299C17.0765 6.36473 13.6818 6.49109 10.3626 6.86206C8.36744 7.08505 6.76921 8.65947 6.53804 10.636C5.93654 15.7788 5.93654 20.9741 6.53804 26.1169C6.76921 28.0934 8.36744 29.6679 10.3626 29.8909C15.3964 30.4534 20.6037 30.4534 25.6375 29.8909C27.6327 29.6679 29.2309 28.0934 29.4621 26.1169Z" fill="#3E97E6"/>
</svg>
