<svg width="24" height="24" viewBox="0 0 24 24" fill="none" xmlns="http://www.w3.org/2000/svg">
<path fill-rule="evenodd" clip-rule="evenodd" d="M7.25042 15.0507C7.24214 15.3948 7.46916 15.7004 7.801 15.7918C8.13284 15.8832 8.48432 15.737 8.65343 15.4372L9.55574 13.8377C10.6258 11.9407 12.756 10.9015 14.9097 11.2256L15.059 11.2481C15.0859 11.9259 15.124 12.6035 15.1733 13.2804L15.2412 14.211C15.2963 14.9678 16.1402 15.3909 16.7796 14.9823C18.8773 13.6419 20.7009 11.9149 22.1532 9.8931L22.6093 9.25816C22.7972 8.99669 22.7972 8.64451 22.6093 8.38303L22.1532 7.7481C20.7009 5.72634 18.8773 3.99925 16.7796 2.65889C16.1402 2.25031 15.2963 2.67338 15.2412 3.43019L15.1733 4.36083C15.1335 4.90656 15.1011 5.45269 15.0759 5.99907L14.0577 5.99907C10.393 5.99907 7.39774 8.92317 7.30965 12.5868L7.25042 15.0507ZM15.133 9.74232C12.7137 9.3782 10.3174 10.3522 8.83314 12.2306C9.09475 9.56748 11.3395 7.49907 14.0577 7.49907L15.7964 7.49907C16.2006 7.49907 16.5322 7.17871 16.546 6.77471C16.5723 6.00591 16.6134 5.23749 16.6694 4.46989L16.6748 4.39543C18.3182 5.55709 19.7585 6.98548 20.935 8.62323L21.0767 8.8206L20.935 9.01797C19.7585 10.6557 18.3182 12.0841 16.6748 13.2458L16.6694 13.1713C16.6064 12.3074 16.5622 11.4425 16.5368 10.5772C16.5261 10.2146 16.2575 9.91156 15.8987 9.85757L15.133 9.74232Z" fill="#E63E43"/>
<path d="M19.6415 17.4113C19.7595 16.403 19.8427 15.3916 19.8913 14.379C19.8965 14.2694 19.9462 14.1667 20.0285 14.0941C20.3919 13.7733 20.744 13.44 21.0841 13.0948C21.212 12.9649 21.4356 13.0557 21.4317 13.238C21.4005 14.6899 21.3004 16.1407 21.1314 17.5855C20.8948 19.6081 19.2705 21.1931 17.2584 21.418C13.7919 21.8054 10.2085 21.8054 6.74195 21.418C4.7299 21.1931 3.10556 19.6081 2.86901 17.5855C2.45447 14.0412 2.45447 10.4607 2.86901 6.9164C3.10556 4.89387 4.7299 3.30886 6.74195 3.08399C9.03293 2.82794 11.3749 2.7411 13.7005 2.82349C13.8963 2.83042 14.0311 3.0221 14.0066 3.2165C14.0016 3.25698 13.9975 3.29793 13.9945 3.33932L13.9432 4.04314C13.9314 4.20473 13.7935 4.32767 13.6316 4.32199C11.3845 4.24315 9.12136 4.32739 6.90856 4.5747C5.57846 4.72336 4.51297 5.77298 4.35885 7.09065C3.95786 10.5192 3.95786 13.9828 4.35885 17.4113C4.51297 18.729 5.57845 19.7786 6.90856 19.9272C10.2644 20.3023 13.736 20.3023 17.0918 19.9272C18.4219 19.7786 19.4874 18.729 19.6415 17.4113Z" fill="#E63E43"/>
</svg>
