<svg width="20" height="19" viewBox="0 0 20 19" fill="none" xmlns="http://www.w3.org/2000/svg">
<path d="M8.20653 1.63397C8.94015 0.147482 11.0598 0.14748 11.7935 1.63397L13.0614 4.20301C13.3527 4.7933 13.9158 5.20244 14.5672 5.2971L17.4023 5.70906C19.0428 5.94743 19.6978 7.96338 18.5108 9.12045L16.4593 11.1202C15.9879 11.5796 15.7728 12.2416 15.8841 12.8904L16.3684 15.7141C16.6486 17.3479 14.9337 18.5938 13.4665 17.8224L10.9307 16.4893C10.348 16.183 9.65197 16.183 9.06932 16.4893L6.53352 17.8224C5.06627 18.5938 3.3514 17.3479 3.63162 15.7141L4.11592 12.8904C4.22719 12.2416 4.0121 11.5796 3.54072 11.1202L1.48922 9.12045C0.302189 7.96338 0.957206 5.94743 2.59765 5.70906L5.43275 5.2971C6.08417 5.20244 6.64731 4.7933 6.93863 4.20301L8.20653 1.63397Z" fill="#FFC542"/>
</svg>
